trial_3_US.mot
nRows=121
nColumns=2

name trial_3_US.mot
datacolumns 2
datarows 121
range 4.780000 5.980000
endheader
time	med_gas_l
        4.7800000000	       88.7349539271	
        4.7900000000	       82.9491847471	
        4.8000000000	       77.3249639348	
        4.8100000000	       73.5814732063	
        4.8200000000	       72.4734896744	
        4.8300000000	       71.3497202427	
        4.8400000000	       68.9008565198	
        4.8500000000	       67.1146993217	
        4.8600000000	       66.9198864078	
        4.8700000000	       68.1480373650	
        4.8800000000	       69.7301954156	
        4.8900000000	       71.0305771781	
        4.9000000000	       72.3913942451	
        4.9100000000	       73.7658157397	
        4.9200000000	       74.8397068841	
        4.9300000000	       75.4564965226	
        4.9400000000	       75.6027782023	
        4.9500000000	       75.4547475434	
        4.9600000000	       75.5519359410	
        4.9700000000	       76.2704964572	
        4.9800000000	       76.4533847621	
        4.9900000000	       75.6816390208	
        5.0000000000	       75.1754968811	
        5.0100000000	       75.0537111482	
        5.0200000000	       74.7890737169	
        5.0300000000	       74.4884219028	
        5.0400000000	       74.4811908464	
        5.0500000000	       75.1136474972	
        5.0600000000	       75.8371544885	
        5.0700000000	       75.8505133756	
        5.0800000000	       75.6593395675	
        5.0900000000	       75.8807023827	
        5.1000000000	       76.7315681350	
        5.1100000000	       77.6872404677	
        5.1200000000	       77.9969014195	
        5.1300000000	       77.8366028651	
        5.1400000000	       77.6317183000	
        5.1500000000	       77.7767060452	
        5.1600000000	       78.0248608807	
        5.1700000000	       77.9490571251	
        5.1800000000	       78.0509940868	
        5.1900000000	       78.9101906458	
        5.2000000000	       80.7517140028	
        5.2100000000	       82.4840109897	
        5.2200000000	       82.7525158325	
        5.2300000000	       82.4687318649	
        5.2400000000	       82.4129396845	
        5.2500000000	       82.3137924208	
        5.2600000000	       82.2689172638	
        5.2700000000	       82.5414138570	
        5.2800000000	       82.8706439100	
        5.2900000000	       83.0954403387	
        5.3000000000	       83.4008126092	
        5.3100000000	       83.8355814764	
        5.3200000000	       84.3192613306	
        5.3300000000	       84.6852654687	
        5.3400000000	       84.8311654823	
        5.3500000000	       84.7965566885	
        5.3600000000	       84.7412345024	
        5.3700000000	       84.8426396424	
        5.3800000000	       85.0641599561	
        5.3900000000	       85.0130057512	
        5.4000000000	       83.9519553527	
        5.4100000000	       82.5704401765	
        5.4200000000	       82.0944050160	
        5.4300000000	       82.1312811407	
        5.4400000000	       82.2276693016	
        5.4500000000	       82.4448808161	
        5.4600000000	       82.5822076370	
        5.4700000000	       82.3737075986	
        5.4800000000	       82.0669024128	
        5.4900000000	       80.9263031422	
        5.5000000000	       76.8049699920	
        5.5100000000	       71.1233482879	
        5.5200000000	       67.0173999862	
        5.5300000000	       64.9246584414	
        5.5400000000	       64.0002986185	
        5.5500000000	       62.6391945414	
        5.5600000000	       61.1336627600	
        5.5700000000	       60.7766419392	
        5.5800000000	       61.7687686154	
        5.5900000000	       63.2623461968	
        5.6000000000	       63.4709676702	
        5.6100000000	       63.5240653428	
        5.6200000000	       65.4074886274	
        5.6300000000	       66.8010765619	
        5.6400000000	       65.8918459162	
        5.6500000000	       63.4726685481	
        5.6600000000	       62.0404309029	
        5.6700000000	       63.6391266717	
        5.6800000000	       64.7284173507	
        5.6900000000	       63.8727145683	
        5.7000000000	       64.7424379405	
        5.7100000000	       67.4175267399	
        5.7200000000	       69.8670753986	
        5.7300000000	       72.0447877618	
        5.7400000000	       74.1051302811	
        5.7500000000	       75.7295094544	
        5.7600000000	       76.6012894287	
        5.7700000000	       76.9597885633	
        5.7800000000	       79.1017999376	
        5.7900000000	       82.4973538161	
        5.8000000000	       82.0813882417	
        5.8100000000	       80.0738800557	
        5.8200000000	       81.3121204496	
        5.8300000000	       81.3145078252	
        5.8400000000	       78.2209132175	
        5.8500000000	       77.3824059618	
        5.8600000000	       78.6821947490	
        5.8700000000	       79.0400093529	
        5.8800000000	       79.2684041362	
        5.8900000000	       80.2218082544	
        5.9000000000	       81.2924561565	
        5.9100000000	       81.8976437840	
        5.9200000000	       81.7368003003	
        5.9300000000	       81.2465453126	
        5.9400000000	       80.9992478632	
        5.9500000000	       81.3663429243	
        5.9600000000	       81.2480073560	
        5.9700000000	       79.3229878177	
        5.9800000000	       77.1497332327	
